<?xml version="1.0" encoding="UTF-8" standalone="no"?>
<!-- Created with Inkscape (http://www.inkscape.org/) -->

<svg
   width="221.84814mm"
   height="157.2359mm"
   viewBox="0 0 221.84814 157.2359"
   version="1.1"
   id="svg5"
   inkscape:version="1.1.2 (b8e25be833, 2022-02-05)"
   sodipodi:docname="Liquipedia 2017 (Icon).svg"
   xmlns:inkscape="http://www.inkscape.org/namespaces/inkscape"
   xmlns:sodipodi="http://sodipodi.sourceforge.net/DTD/sodipodi-0.dtd"
   xmlns="http://www.w3.org/2000/svg"
   xmlns:svg="http://www.w3.org/2000/svg">
  <sodipodi:namedview
     id="namedview7"
     pagecolor="#ffffff"
     bordercolor="#666666"
     borderopacity="1.0"
     inkscape:pageshadow="2"
     inkscape:pageopacity="0.0"
     inkscape:pagecheckerboard="0"
     inkscape:document-units="mm"
     showgrid="false"
     inkscape:zoom="0.64052329"
     inkscape:cx="-155.34174"
     inkscape:cy="391.86709"
     inkscape:window-width="1920"
     inkscape:window-height="1017"
     inkscape:window-x="-8"
     inkscape:window-y="-8"
     inkscape:window-maximized="1"
     inkscape:current-layer="g884" />
  <defs
     id="defs2" />
  <g
     inkscape:label="Layer 1"
     inkscape:groupmode="layer"
     id="layer1"
     transform="translate(-37.476351,21.820313)">
    <g
       id="g884"
       transform="matrix(0.26458333,0,0,0.26458333,-241.14924,39.001418)">
      <g
         id="g858"
         transform="matrix(1.6153232,0,0,1.6153232,-1163.9172,-224.22378)">
        <path
           class="st0"
           d="m 1756.3,0 c -0.3,0 -0.6,0 -0.8,0 -4.5,0.5 -95.5,9 -109.3,13.4 -6.1,1.9 -15.8,7.2 -11.6,21.6 1.4,4.8 7.4,15.2 12.8,24.5 0.8,1.4 1.5,2.6 1.9,3.3 10.7,18.8 7.3,32.2 3.1,41.8 -8.4,19.3 -26.7,26.2 -41.1,26.2 -8.5,0 -16.9,-2.3 -23.5,-6.4 -20.6,-12.9 -27.9,-30.8 -22.4,-54.7 v 0 0 c 2.8,-12.9 3.9,-22.2 3.3,-28.5 v 0 0 c -0.5,-4.8 -2.8,-8.5 -6.6,-10.8 -2.9,-1.7 -6.6,-2.6 -11.2,-2.6 -9.1,0 -18.8,3.5 -19.9,3.9 l -71,23.6 c -2.5,0.8 -4.4,2.4 -5.5,4.5 -0.7,1.5 -1.4,3.9 -0.3,7.1 l 18.9,56.7 c 4.3,12.8 3.1,18.3 1.4,20.7 -1.4,2 -4.3,3 -8.4,3 -1,0 -2,-0.1 -3.2,-0.2 l -11.7,-1.2 -22.7,-2.3 c -1.4,-0.1 -2.8,-0.2 -4.2,-0.2 -12.5,0 -24.9,5.8 -34.1,15.9 -10.2,11.4 -15.4,27.2 -14,43.3 2.1,22.7 14.1,35.6 23.7,42.4 11.4,8.1 24.3,11.1 31.8,11.2 0.3,0 0.6,0 0.9,0 10.8,0 22.1,-3.2 35.6,-10.1 13.8,-7.1 19.4,-8.2 21.5,-8.2 0.1,0 0.3,0 0.4,0 7.7,0.8 7.5,17.1 7.5,17.2 v 0.1 0.1 l 1.2,96.7 v 0.2 0.2 c 0.8,6.3 5.2,8.5 8.8,8.5 0.3,0 0.6,0 0.8,0 4.5,-0.4 95.5,-9 109.2,-13.3 6.1,-1.9 15.8,-7.2 11.6,-21.6 -1.4,-4.8 -7.4,-15.2 -12.8,-24.5 -0.8,-1.4 -1.5,-2.6 -1.9,-3.3 -10.7,-18.8 -7.3,-32.2 -3.1,-41.8 8.4,-19.3 26.7,-26.2 41.1,-26.2 8.5,0 16.9,2.3 23.5,6.4 20.6,12.9 27.9,30.8 22.4,54.7 v 0 0 c -2.8,12.9 -3.9,22.2 -3.3,28.5 v 0 0 c 0.5,4.8 2.8,8.5 6.6,10.8 2.9,1.7 6.6,2.6 11.2,2.6 9.1,0 18.8,-3.5 19.9,-3.9 l 71,-23.6 c 2.5,-0.8 4.4,-2.4 5.5,-4.5 0.7,-1.5 1.4,-3.9 0.3,-7.1 l -18.9,-56.7 c -4.3,-12.8 -3.1,-18.3 -1.4,-20.7 1.4,-2 4.3,-3 8.4,-3 1,0 2,0.1 3.2,0.2 l 11.7,1.2 22.7,2.3 c 1.4,0.1 2.8,0.2 4.2,0.2 12.5,0 24.9,-5.8 34.1,-15.9 10.5,-11.5 15.7,-27.4 14.2,-43.5 -2.1,-22.7 -14.1,-35.6 -23.7,-42.4 -11.4,-8.1 -24.3,-11.1 -31.8,-11.2 -0.3,0 -0.6,0 -0.9,0 -10.8,0 -22.1,3.2 -35.6,10.1 -13.8,7.1 -19.4,8.2 -21.5,8.2 -0.1,0 -0.3,0 -0.4,0 -7.7,-0.8 -7.5,-17.1 -7.5,-17.2 v -0.1 -0.1 L 1765.1,9 V 8.8 8.6 C 1764.3,2.2 1759.9,0 1756.3,0 Z"
           id="path848"
           style="fill:#042b4c;fill-opacity:1;stroke:#0c3c6a;stroke-opacity:1" />
        <g
           id="g856"
           style="fill:#ffffff;fill-opacity:1;stroke:none;stroke-opacity:1">
          <path
             class="st1"
             d="m 1702.6,292.4 c -0.4,2.1 -0.9,4.1 -1.3,6.2 8.7,0.1 22,-3.1 22,-3.1 l -19.2,-24.4 c 0.8,7 0.1,14.2 -1.5,21.3 z"
             id="path850"
             style="fill:#ffffff;fill-opacity:1;stroke:none;stroke-opacity:1" />
          <path
             class="st1"
             d="m 1625.3,327.4 c -1.7,-5.7 -11.9,-22.5 -14.4,-26.9 -11.5,-20.3 -7.7,-35.4 -3.3,-45.6 1.6,-3.7 3.5,-6.9 5.7,-9.9 -8.1,-26.2 -4.6,-54.6 -4.6,-54.6 1.4,20.5 10.7,35.8 16.5,43.6 16.3,-10.4 38,-10.1 53,-0.7 16,10.1 23.5,22.5 25.5,35.7 l 38.3,16.4 22.6,-33.5 -62.4,-94.2 c -4.6,-11.8 -2.8,-26.4 -2.8,-26.4 -2.4,-0.8 -24.5,-12.7 -44,-23.3 -13.5,28.2 -48.5,33.3 -69.9,19.9 -15.7,-9.8 -23.1,-21.9 -25.4,-34.8 -7.2,4.1 -14.9,9.4 -22.9,15.8 v 0 C 1525.1,93.7 1509.6,72 1496,47.6 l -34.5,11.5 c -2.7,0.9 -4.2,3.1 -3.1,6.3 0,0 0.9,2.8 2.4,7.2 19.3,22.7 40.5,42.2 56.4,55.3 -5.9,6.3 -11.7,13.3 -17.1,21 -5.9,-3.1 -12.5,-6.7 -19.6,-10.8 0,8.5 -4.3,14.5 -17.8,13.2 -9.6,-1 -31,-3.2 -34.4,-3.5 -3,-0.3 -5.9,-0.2 -8.8,0.2 24.4,11 48.5,19.1 66.5,24.1 -4.1,7.9 -7.8,16.3 -10.9,25.2 -23.9,-1.5 -59,-5.7 -92.6,-15.4 -1.9,6.3 -2.7,13.3 -2,20.5 1,11.4 4.7,20.3 9.7,27.3 29.2,0.7 57.4,-2 77.4,-5 -1.2,6 -2.1,12.2 -2.8,18.6 0.5,-0.3 1,-0.5 1.6,-0.8 9.6,-4.9 19.2,-9 24.2,-8.6 12,1.2 11.3,21.6 11.3,21.6 l 1.2,96.7 c 0.7,5.4 5,4.8 5,4.8 0,0 95,-8.9 108.4,-13.2 12,-3.7 9.9,-12.6 8.8,-16.4 z m 110.3,-75.5 13,3.5 -16.8,3.1 -7.6,-13.9 z m -60.9,-100.7 9.2,8.8 c 0,0 -10.9,4.5 -15.6,1.5 -4.7,-3.1 -12.3,-19.9 -12.3,-19.9 z"
             id="path852"
             style="fill:#ffffff;fill-opacity:1;stroke:none;stroke-opacity:1" />
          <path
             class="st1"
             d="m 1559.8,89.6 c -0.7,-6.9 0,-13.9 1.6,-20.9 2.2,-10.2 3.8,-20.4 3.2,-27.2 -1.4,-13.2 -19.1,-9.8 -27.6,-7.4 7.2,21.3 15.6,40.7 22.8,55.5 z"
             id="path854"
             style="fill:#ffffff;fill-opacity:1;stroke:none;stroke-opacity:1" />
        </g>
      </g>
    </g>
  </g>
  <style
     type="text/css"
     id="style824">
	.st0{fill:#042B4C;stroke:#0c3c6a;stroke-width:7px;}
	.st1{fill:#FFFFFF;}
</style>
</svg>
