<?xml version="1.0" standalone="no"?>
<!DOCTYPE svg PUBLIC "-//W3C//DTD SVG 20010904//EN"
 "http://www.w3.org/TR/2001/REC-SVG-20010904/DTD/svg10.dtd">
<svg version="1.0" xmlns="http://www.w3.org/2000/svg"
 width="138.000000pt" height="138.000000pt" viewBox="0 0 138.000000 138.000000"
 preserveAspectRatio="xMidYMid meet">
<metadata>
Created by potrace 1.14, written by Peter Selinger 2001-2017
</metadata>
<g transform="translate(0.000000,138.000000) scale(0.100000,-0.100000)"
fill="#000000" stroke="none">
<path d="M388 1138 l-298 -151 0 -302 0 -301 300 -152 299 -153 301 152 300
152 0 301 0 302 -299 152 c-164 84 -300 152 -302 152 -2 -1 -138 -69 -301
-152z m784 -204 c14 -5 16 -28 16 -194 0 -156 -2 -191 -15 -201 -8 -7 -47 -14
-89 -15 l-73 -2 23 32 c47 61 55 149 21 221 -18 40 -70 88 -125 117 -44 22
-53 23 -392 28 l-348 5 250 126 250 126 232 -119 c128 -65 240 -121 250 -124z
m-817 -287 l0 -198 44 3 45 3 -1 196 0 195 128 0 128 -1 -24 -25 c-81 -84 -70
-225 23 -298 76 -60 100 -66 304 -72 l188 -5 -250 -126 -250 -126 -248 125
-249 126 0 195 c-1 108 0 198 2 201 2 3 39 5 82 5 l78 0 0 -198z m586 140 c79
-52 68 -182 -19 -221 -52 -24 -127 -18 -170 13 -89 63 -52 207 59 230 43 9 97
0 130 -22z"/>
</g>
</svg>
