<?xml version="1.0" standalone="no"?>
<!DOCTYPE svg PUBLIC "-//W3C//DTD SVG 20010904//EN"
 "http://www.w3.org/TR/2001/REC-SVG-20010904/DTD/svg10.dtd">
<svg version="1.0" xmlns="http://www.w3.org/2000/svg"
 width="197.000000pt" height="197.000000pt" viewBox="0 0 197.000000 197.000000"
 preserveAspectRatio="xMidYMid meet">
<metadata>
Created by potrace 1.14, written by Peter Selinger 2001-2017
</metadata>
<g transform="translate(0.000000,197.000000) scale(0.100000,-0.100000)"
fill="#000000" stroke="none">
<path d="M910 1938 c-30 -19 -100 -68 -155 -110 -185 -141 -250 -192 -261
-202 -6 -6 -28 -24 -48 -41 -78 -61 -149 -126 -144 -130 2 -2 17 -5 33 -8 17
-2 122 -19 233 -38 l204 -33 30 35 c16 18 44 50 61 69 18 19 65 73 106 118 41
46 82 87 92 93 14 7 34 3 76 -15 69 -29 347 -160 453 -213 l75 -38 -1 -105 c0
-58 -4 -159 -8 -225 -3 -66 -9 -158 -12 -205 -10 -193 -15 -225 -32 -241 -9
-9 -95 -49 -191 -90 -121 -51 -176 -79 -182 -94 -20 -46 -108 -450 -101 -457
20 -20 300 114 555 266 43 25 81 46 83 46 2 0 29 16 58 36 36 23 59 48 68 70
11 26 13 135 13 516 l0 483 -22 32 c-16 21 -91 70 -230 151 -719 415 -657 388
-753 330z"/>
<path d="M308 1207 c-28 -10 -47 -36 -48 -64 0 -22 -3 -23 -100 -23 -125 0
-128 -3 -93 -115 53 -168 189 -305 338 -339 24 -6 51 -35 125 -134 52 -69 96
-131 98 -137 1 -6 -27 -63 -64 -126 -104 -178 -124 -216 -117 -223 3 -3 118
-6 255 -6 221 0 248 2 248 16 0 9 -24 57 -54 107 -29 51 -64 110 -76 132 -12
22 -30 54 -41 71 l-19 31 96 128 c95 128 95 128 159 150 82 27 167 86 217 149
49 62 69 102 99 193 31 98 26 103 -96 103 l-93 0 -12 35 c-6 19 -21 41 -33 47
-25 14 -752 19 -789 5z m17 -303 c20 -69 35 -127 32 -130 -2 -3 -24 17 -49 44
-39 44 -98 164 -98 199 0 12 45 22 66 15 6 -2 28 -59 49 -128z m855 106 c0
-24 -39 -118 -64 -155 -20 -29 -88 -96 -93 -92 -1 1 17 62 40 134 34 107 46
133 62 135 33 6 55 -3 55 -22z"/>
</g>
</svg>
